<svg width="107" height="20" viewBox="0 0 107 20" fill="none" xmlns="http://www.w3.org/2000/svg">
<path d="M12.31 19.5V0.5H16.1V7.81H23.57V0.5H27.36V19.5H23.57V11.71H16.1V19.5H12.31Z" fill="white"/>
<path d="M48.11 19.5V0.5H59.21C64.6 0.5 67.89 3.01 67.89 7.72C67.89 11.23 65.86 13.9 62.45 14.65L68.32 19.5H63.61L58.19 14.92H51.9V19.5H48.11ZM51.9 11.38H58.67C62.05 11.38 64.1 9.85 64.1 7.69C64.1 5.53 62.05 4.03 58.67 4.03H51.9V11.38Z" fill="white"/>
<path d="M31.13 19.5C25.46 19.5 21.64 15.58 21.64 10C21.64 4.42 25.46 0.5 31.13 0.5C36.8 0.5 40.62 4.42 40.62 10C40.62 15.58 36.8 19.5 31.13 19.5ZM31.13 16.03C34.54 16.03 36.83 13.51 36.83 10C36.83 6.49 34.54 3.97 31.13 3.97C27.72 3.97 25.43 6.49 25.43 10C25.43 13.51 27.72 16.03 31.13 16.03Z" fill="white"/>
<path d="M73.44 19.5L78.89 0.5H83.21L77.76 19.5H73.44Z" fill="white"/>
<path d="M85.8 19.5L91.25 0.5H95.57L90.12 19.5H85.8Z" fill="white"/>
<path d="M106.31 10.36L100.95 0.5H96.41L104.13 13.93V19.5H108.01V6.67L106.31 10.36Z" fill="white"/>
</svg>
