<svg width="115" height="35" viewBox="0 0 115 35" fill="none" xmlns="http://www.w3.org/2000/svg">
<path d="M47.8827 24.3824V10.6176H50.5489L53.4352 21.2059L56.3215 10.6176H58.9877V24.3824H57.173V13.8824L54.6705 24.3824H52.1934L49.6908 13.8824V24.3824H47.8827Z" fill="white"/>
<path d="M62.3847 24.3824V10.6176H68.3283C70.6274 10.6176 72.072 12.0623 72.072 14.3613C72.072 16.0353 71.2524 17.2059 69.8078 17.6176L72.292 24.3824H70.1566L68.0471 18.2353H64.1928V24.3824H62.3847ZM64.1928 16.7941H68.0471C69.4917 16.7941 70.2673 15.9118 70.2673 14.4265C70.2673 12.9412 69.4917 12.0588 68.0471 12.0588H64.1928V16.7941Z" fill="white"/>
<path d="M75.1488 24.3824V10.6176H83.8445V12.0588H77.023V16.5147H82.9902V17.9559H77.023V22.9412H84.0645V24.3824H75.1488Z" fill="white"/>
<path fill-rule="evenodd" clip-rule="evenodd" d="M0 5C0 2.23858 2.23858 0 5 0H33C35.7614 0 38 2.23858 38 5V30C38 32.7614 35.7614 35 33 35H5C2.23858 35 0 32.7614 0 30V5ZM22.4286 10.6176V24.3824H20.6205V17.2941L16.2144 24.3824H14.167L18.729 17.0441L14.2261 10.6176H16.3204L19.5539 15.5441L20.6205 10.6176H22.4286Z" fill="#00A8E1"/>
<path d="M96.0023 21.0147C96.0023 23.0147 94.4141 24.6029 92.4141 24.6029C90.4141 24.6029 88.8259 23.0147 88.8259 21.0147C88.8259 19.0147 90.4141 17.4265 92.4141 17.4265C94.4141 17.4265 96.0023 19.0147 96.0023 21.0147Z" fill="white"/>
<path d="M111.414 21.0147C111.414 23.0147 109.826 24.6029 107.826 24.6029C105.826 24.6029 104.238 23.0147 104.238 21.0147C104.238 19.0147 105.826 17.4265 107.826 17.4265C109.826 17.4265 111.414 19.0147 111.414 21.0147Z" fill="white"/>
</svg>
